<svg id="DIAMS" xmlns="http://www.w3.org/2000/svg" width="149.25" height="111.75" viewBox="0 0 149.25 111.75">
    <g style="fill:#d49f4b;">
      <path id="Polygone_2" data-name="Polygone 2" class="cls-1" d="M49.408,48.563L35.443,20.534l35.85,0.483Z" transform="translate(-0.75 -20.25)"/>
      <path id="Polygone_2-2" data-name="Polygone 2" class="cls-1" d="M100.725,48l14.02-27.747-35.99.478Z" transform="translate(-0.75 -20.25)"/>
      <path id="Polygone_3" data-name="Polygone 3" class="cls-1" d="M95.242,52.1l-40.482.392L75.383,27Z" transform="translate(-0.75 -20.25)"/>
      <path id="Polygone_1" data-name="Polygone 1" class="cls-1" d="M44.438,52.406L0.756,52.374,29.931,21.748Z" transform="translate(-0.75 -20.25)"/>
      <path id="Polygone_1-2" data-name="Polygone 1" class="cls-1" d="M106.5,52.5l43.494-.032-29.05-30.719Z" transform="translate(-0.75 -20.25)"/>
      <path id="Polygone_4" data-name="Polygone 4" class="cls-1" d="M69.447,131.889L3.371,59.416l42.751-.022Z" transform="translate(-0.75 -20.25)"/>
      <path id="Polygone_4-2" data-name="Polygone 4" class="cls-1" d="M81.749,132.006l66.005-72.731-42.7-.022Z" transform="translate(-0.75 -20.25)"/>
      <path id="Polygone_5" data-name="Polygone 5" class="cls-1" d="M97.5,59.251L75.168,130.509,53.253,59.31Z" transform="translate(-0.75 -20.25)"/>
    </g>
</svg>
